<?xml version="1.0" encoding="UTF-8"?>
<!DOCTYPE svg PUBLIC "-//W3C//DTD SVG 1.1//EN" "http://www.w3.org/Graphics/SVG/1.1/DTD/svg11.dtd">
<!-- Creator: CorelDRAW -->
<svg xmlns="http://www.w3.org/2000/svg" xml:space="preserve" width="5.96111in" height="5.96433in" version="1.1" style="shape-rendering:geometricPrecision; text-rendering:geometricPrecision; image-rendering:optimizeQuality; fill-rule:evenodd; clip-rule:evenodd"
viewBox="0 0 5957.82 5961.04"
 xmlns:xlink="http://www.w3.org/1999/xlink"
 xmlns:xodm="http://www.corel.com/coreldraw/odm/2003">
 <defs>
  <style type="text/css">
   <![CDATA[
    .fil2 {fill:#005BFF;fill-rule:nonzero}
    .fil1 {fill:#06F3FF;fill-rule:nonzero}
    .fil3 {fill:#4367AF;fill-rule:nonzero}
    .fil0 {fill:#FEFEFE;fill-rule:nonzero}
   ]]>
  </style>
 </defs>
 <g id="Layer_x0020_1">
  <metadata id="CorelCorpID_0Corel-Layer"/>
  <g id="_2467800211728">
   <path class="fil0" d="M4658.88 1035.4l-3359.94 0c-134.2,0 -244.01,109.8 -244.01,244.01l0 3359.94c0,134.2 109.8,244.01 244.01,244.01l3359.94 0c134.2,0 244.01,-109.8 244.01,-244.01l0 -3359.94c0,-135.02 -109.8,-244.01 -244.01,-244.01zm-625.47 3560.84l-2405.89 0c-157.78,0 -285.49,-127.69 -285.49,-285.49l0 -2399.38c0,-44.74 36.6,-81.34 81.34,-81.34 44.74,0 81.34,36.6 81.34,81.34l0 2399.38c0,67.51 55.31,122.82 122.82,122.82l2405.88 0c44.74,0 81.34,36.6 81.34,81.34 0,44.74 -35.79,81.34 -81.34,81.34l0 0 0 -0.01 -0.01 -0.01z"/>
   <path class="fil1" d="M4033.41 4433.57l-2405.89 0c-67.51,0 -122.82,-55.31 -122.82,-122.82l0 -2399.38c0,-44.74 -36.6,-81.34 -81.34,-81.34 -44.74,0 -81.34,36.6 -81.34,81.34l0 2399.38c0,157.78 127.69,285.49 285.49,285.49l2405.89 0c44.74,0 81.34,-36.6 81.34,-81.34 0,-44.74 -35.79,-81.34 -81.34,-81.34l0 0 0.01 0.01 0.01 0.01z"/>
   <path class="fil2" d="M5795.14 2066.73c89.47,0 162.67,-73.2 162.67,-162.67 0,-89.47 -73.2,-162.67 -162.67,-162.67l-566.91 0 0 -461.99c0,-313.96 -255.4,-569.35 -569.35,-569.35l-226.12 0 0 -547.39c0,-89.47 -73.2,-162.67 -162.67,-162.67 -89.47,0 -162.67,73.2 -162.67,162.67l0 547.39 -378.2 0 0 -547.39c0,-89.47 -73.2,-162.67 -162.67,-162.67 -89.47,0 -162.67,73.2 -162.67,162.67l0 547.39 -378.22 0 0 -547.39c0,-89.47 -73.2,-162.67 -162.67,-162.67 -89.47,0 -162.67,73.2 -162.67,162.67l0 547.39 -378.2 0 0 -547.39c0,-89.47 -73.2,-162.67 -162.67,-162.67 -89.47,0 -162.67,73.2 -162.67,162.67l0 547.39 -697.86 0c-313.96,0 -569.35,255.4 -569.35,569.35l0 461.99 -566.91 0c-89.47,0 -162.67,73.2 -162.67,162.67 0,89.47 73.2,162.67 162.67,162.67l566.91 0 0 378.2 -566.91 0c-89.47,0 -162.67,73.2 -162.67,162.67 0,89.47 73.2,162.67 162.67,162.67l566.91 0 0 378.2 -566.91 0c-89.47,0 -162.67,73.2 -162.67,162.67 0,89.47 73.2,162.67 162.67,162.67l566.91 0 0 378.2 -566.91 0c-89.47,0 -162.67,73.2 -162.67,162.67 0,89.47 73.2,162.67 162.67,162.67l566.91 0 0 461.99c0,313.96 255.4,569.35 569.35,569.35l250.51 0 0 589.69c0,89.47 73.2,162.67 162.67,162.67 89.47,0 162.67,-73.2 162.67,-162.67l0 -589.69 378.22 0 0 589.69c0,89.47 73.2,162.67 162.67,162.67 89.47,0 162.67,-73.2 162.67,-162.67l0 -589.69 378.2 0 0 589.69c0,89.47 73.2,162.67 162.67,162.67 89.47,0 162.67,-73.2 162.67,-162.67l0 -589.69 378.22 0 0 589.69c0,89.47 73.2,162.67 162.67,162.67 89.47,0 162.67,-73.2 162.67,-162.67l0 -589.69 673.46 0c313.96,0 569.35,-255.4 569.35,-569.35l0 -461.99 566.91 0c89.47,0 162.67,-73.2 162.67,-162.67 0,-89.47 -73.2,-162.67 -162.67,-162.67l-566.91 0 0 -378.2 566.91 0c89.47,0 162.67,-73.2 162.67,-162.67 0,-89.47 -73.2,-162.67 -162.67,-162.67l-566.91 0 0 -378.2 566.91 0c89.47,0 162.67,-73.2 162.67,-162.67 0,-89.47 -73.2,-162.67 -162.67,-162.67l-566.91 0 0 -378.2 566.91 0 -0.01 0zm-892.25 2571.82c0,134.2 -109.8,244.01 -244.01,244.01l-3359.94 0c-134.2,0 -244.01,-109.8 -244.01,-244.01l0 -3359.13c0,-134.2 109.8,-244.01 244.01,-244.01l3359.94 0c134.2,0 244.01,109.8 244.01,244.01l0 3359.13z"/>
   <path class="fil3" d="M2378.3 3021.12l202.8 62.3c-31.14,114.2 -83.05,198.95 -155.49,254.47 -72.43,55.29 -164.18,83.05 -275.48,83.05 -137.86,0 -251.1,-47.08 -339.95,-141.23 -88.6,-94.16 -133.02,-222.86 -133.02,-386.3 0,-172.63 44.66,-306.86 133.76,-402.48 89.09,-95.61 206.44,-143.41 351.77,-143.41 126.99,0 230.08,37.67 309.29,112.75 47.31,44.42 82.56,108.17 106.23,191.45l-207.16 49.25c-12.3,-53.6 -37.9,-96.1 -76.77,-127.24 -39.11,-31.14 -86.43,-46.59 -141.97,-46.59 -77.02,0 -139.55,27.52 -187.36,82.81 -48.04,55.05 -71.94,144.38 -71.94,268 0,130.86 23.67,224.29 70.74,279.83 47.32,55.77 108.64,83.53 184.22,83.53 55.77,0 103.81,-17.62 143.9,-53.12 40.08,-35.5 69.05,-91.02 86.43,-167.08l0 0 0 0zm382.68 382.44l0 -1037.21 335.83 0c127.24,0 210.05,5.07 248.67,15.45 59.4,15.69 109.13,49.49 149.21,101.64 40.08,52.14 60.12,119.51 60.12,202.08 0,63.74 -11.58,117.1 -34.53,160.56 -23.18,43.46 -52.39,77.51 -87.88,102.36 -35.5,24.63 -71.71,41.05 -108.41,49.01 -49.97,9.9 -122.16,14.96 -216.81,14.96l-136.16 0 0 391.13 -210.05 0 0.01 0 0 0zm210.05 -861.93l0 295.53 114.2 0c82.34,0 137.14,-5.56 164.9,-16.42 27.76,-10.86 49.49,-27.76 65.18,-51.18 15.69,-23.18 23.67,-49.97 23.67,-80.88 0,-37.9 -11.11,-69.05 -33.08,-93.68 -22.21,-24.63 -49.97,-40.08 -84.02,-46.36 -24.88,-4.59 -74.85,-7 -150.18,-7l-100.67 0 0.01 -0.01 -0 0zm756.17 -175.28l210.05 0 0 562.06c0,89.33 2.66,147.03 7.72,173.35 8.92,42.5 29.94,76.77 63.26,102.36 33.55,25.84 79.18,38.63 137.14,38.63 58.67,0 103.09,-12.07 133.02,-36.46 29.93,-24.39 47.8,-54.08 53.84,-89.57 6.04,-35.5 9.18,-94.16 9.18,-176.25l0 -574.13 210.05 0 0 545.41c0,124.57 -5.56,212.7 -16.9,264.13 -11.34,51.42 -32.11,94.89 -62.54,130.38 -30.17,35.5 -70.74,63.5 -121.44,84.5 -50.95,21.01 -117.1,31.63 -198.95,31.63 -98.74,0 -173.59,-11.34 -224.54,-34.29 -50.94,-22.93 -91.26,-52.63 -120.95,-89.34 -29.7,-36.69 -49.01,-74.85 -58.43,-115.16 -13.76,-59.4 -20.53,-147.28 -20.53,-263.41l0 -553.86 0 0 0.02 0.02z"/>
  </g>
 </g>
</svg>
